<svg width="1920" height="8005" viewBox="0 0 1920 8005" fill="none" xmlns="http://www.w3.org/2000/svg">
<path d="M1920 0.000160215C1920 125.938 1895.17 250.642 1846.92 366.994C1798.68 483.345 1727.97 589.064 1638.82 678.115C1549.68 767.167 1443.85 837.806 1327.38 886C1210.9 934.195 1086.07 959 960 959C833.931 959 709.096 934.195 592.624 886C476.151 837.806 370.322 767.167 281.177 678.115C192.033 589.064 121.32 483.345 73.0756 366.993C24.8311 250.642 -5.29463e-05 125.938 -4.19192e-05 6.10352e-05L290.196 4.83503e-05C290.196 87.8683 307.521 174.876 341.182 256.056C374.842 337.236 424.18 410.997 486.377 473.13C548.574 535.262 622.413 584.548 703.677 618.174C784.941 651.799 872.04 669.106 960 669.106C1047.96 669.106 1135.06 651.799 1216.32 618.174C1297.59 584.548 1371.43 535.262 1433.62 473.13C1495.82 410.997 1545.16 337.236 1578.82 256.056C1612.48 174.876 1629.8 87.8685 1629.8 0.0001729L1920 0.000160215Z" fill="url(#paint0_linear_770_592)"/>
<path d="M1542 0.000132225C1542 76.5608 1526.95 152.372 1497.7 223.105C1468.45 293.837 1425.58 358.107 1371.54 412.243C1317.49 466.38 1253.33 509.323 1182.72 538.622C1112.11 567.92 1036.43 583 960 583C883.571 583 807.89 567.92 737.278 538.622C666.667 509.323 602.508 466.38 548.464 412.243C494.42 358.107 451.55 293.837 422.302 223.104C393.054 152.372 378 76.5607 378 6.10352e-05L553.931 5.3345e-05C553.931 53.4174 564.435 106.312 584.841 155.663C605.248 205.014 635.159 249.856 672.866 287.627C710.573 325.399 755.338 355.361 804.604 375.803C853.871 396.245 906.674 406.766 960 406.766C1013.33 406.766 1066.13 396.245 1115.4 375.803C1164.66 355.361 1209.43 325.399 1247.13 287.627C1284.84 249.856 1314.75 205.014 1335.16 155.663C1355.57 106.312 1366.07 53.4174 1366.07 0.000139916L1542 0.000132225Z" fill="url(#paint1_linear_770_592)"/>
<path d="M1259 0.000187484C1259 39.2654 1251.27 78.1462 1236.24 114.422C1221.21 150.699 1199.19 183.66 1171.42 211.425C1143.66 239.19 1110.7 261.214 1074.42 276.24C1038.15 291.266 999.265 299 960 299C920.735 299 881.854 291.266 845.578 276.24C809.301 261.214 776.34 239.19 748.575 211.425C720.81 183.66 698.786 150.699 683.76 114.422C668.734 78.1461 661 39.2654 661 0.000152588L751.384 0.000148637C751.384 27.396 756.78 54.5236 767.264 79.8341C777.748 105.145 793.114 128.142 812.486 147.514C831.858 166.886 854.856 182.252 880.166 192.736C905.477 203.22 932.604 208.616 960 208.616C987.396 208.616 1014.52 203.22 1039.83 192.736C1065.14 182.252 1088.14 166.886 1107.51 147.514C1126.89 128.142 1142.25 105.145 1152.74 79.8341C1163.22 54.5236 1168.62 27.396 1168.62 0.000191434L1259 0.000187484Z" fill="url(#paint2_linear_770_592)"/>
<path d="M-4.19192e-05 8005C-3.64143e-05 7879.06 24.8311 7754.36 73.0757 7638.01C121.32 7521.66 192.033 7415.94 281.177 7326.88C370.322 7237.83 476.151 7167.19 592.624 7119C709.097 7070.81 833.931 7046 960 7046C1086.07 7046 1210.9 7070.81 1327.38 7119C1443.85 7167.19 1549.68 7237.83 1638.82 7326.88C1727.97 7415.94 1798.68 7521.66 1846.92 7638.01C1895.17 7754.36 1920 7879.06 1920 8005L1629.8 8005C1629.8 7917.13 1612.48 7830.12 1578.82 7748.94C1545.16 7667.76 1495.82 7594 1433.62 7531.87C1371.43 7469.74 1297.59 7420.45 1216.32 7386.83C1135.06 7353.2 1047.96 7335.89 960 7335.89C872.04 7335.89 784.941 7353.2 703.677 7386.83C622.413 7420.45 548.574 7469.74 486.377 7531.87C424.18 7594 374.843 7667.76 341.182 7748.94C307.521 7830.12 290.196 7917.13 290.196 8005L-4.19192e-05 8005Z" fill="url(#paint3_linear_770_592)"/>
<path d="M378 8005C378 7928.44 393.054 7852.63 422.302 7781.9C451.55 7711.16 494.42 7646.89 548.464 7592.76C602.508 7538.62 666.667 7495.68 737.278 7466.38C807.89 7437.08 883.571 7422 960 7422C1036.43 7422 1112.11 7437.08 1182.72 7466.38C1253.33 7495.68 1317.49 7538.62 1371.54 7592.76C1425.58 7646.89 1468.45 7711.16 1497.7 7781.9C1526.95 7852.63 1542 7928.44 1542 8005L1366.07 8005C1366.07 7951.58 1355.57 7898.69 1335.16 7849.34C1314.75 7799.99 1284.84 7755.14 1247.13 7717.37C1209.43 7679.6 1164.66 7649.64 1115.4 7629.2C1066.13 7608.75 1013.33 7598.23 960 7598.23C906.674 7598.23 853.871 7608.75 804.604 7629.2C755.338 7649.64 710.573 7679.6 672.866 7717.37C635.159 7755.14 605.248 7799.99 584.841 7849.34C564.434 7898.69 553.931 7951.58 553.931 8005L378 8005Z" fill="url(#paint4_linear_770_592)"/>
<path d="M661 8005C661 7965.73 668.734 7926.85 683.76 7890.58C698.786 7854.3 720.81 7821.34 748.575 7793.58C776.34 7765.81 809.301 7743.79 845.578 7728.76C881.854 7713.73 920.735 7706 960 7706C999.265 7706 1038.15 7713.73 1074.42 7728.76C1110.7 7743.79 1143.66 7765.81 1171.42 7793.58C1199.19 7821.34 1221.21 7854.3 1236.24 7890.58C1251.27 7926.85 1259 7965.73 1259 8005L1168.62 8005C1168.62 7977.6 1163.22 7950.48 1152.74 7925.17C1142.25 7899.86 1126.89 7876.86 1107.51 7857.49C1088.14 7838.11 1065.14 7822.75 1039.83 7812.26C1014.52 7801.78 987.396 7796.38 960 7796.38C932.604 7796.38 905.477 7801.78 880.166 7812.26C854.856 7822.75 831.858 7838.11 812.486 7857.49C793.114 7876.86 777.748 7899.86 767.264 7925.17C756.78 7950.48 751.384 7977.6 751.384 8005L661 8005Z" fill="url(#paint5_linear_770_592)"/>
<path d="M0.000132096 631C99.0169 631 197.064 650.542 288.543 688.509C380.023 726.477 463.143 782.126 533.159 852.281C603.174 922.436 658.713 1005.72 696.605 1097.38C734.497 1189.04 754 1287.29 754 1386.5C754 1485.71 734.497 1583.96 696.605 1675.62C658.713 1767.28 603.174 1850.56 533.158 1920.72C463.143 1990.87 380.023 2046.52 288.543 2084.49C197.064 2122.46 99.0165 2142 -0.00012207 2142L-0.000102105 1913.62C69.0851 1913.62 137.494 1899.99 201.32 1873.5C265.147 1847.01 323.141 1808.18 371.991 1759.23C420.842 1710.28 459.592 1652.17 486.03 1588.22C512.468 1524.27 526.075 1455.72 526.075 1386.5C526.075 1317.28 512.468 1248.73 486.03 1184.78C459.593 1120.83 420.842 1062.72 371.992 1013.77C323.141 964.821 265.147 925.993 201.32 899.503C137.494 873.013 69.0853 859.378 0.00011213 859.378L0.000132096 631Z" fill="url(#paint6_linear_770_592)"/>
<path d="M7.99918e-05 929C60.1455 929 119.702 940.834 175.269 963.825C230.836 986.817 281.326 1020.52 323.855 1063C366.384 1105.48 400.12 1155.92 423.137 1211.42C446.154 1266.93 458 1326.42 458 1386.5C458 1446.58 446.153 1506.07 423.137 1561.58C400.12 1617.08 366.384 1667.52 323.855 1710C281.326 1752.48 230.836 1786.18 175.269 1809.17C119.702 1832.17 60.1454 1844 -9.15527e-05 1844L-7.94625e-05 1705.7C41.9642 1705.7 83.5175 1697.45 122.287 1681.41C161.057 1665.36 196.284 1641.85 225.958 1612.21C255.631 1582.57 279.169 1547.38 295.228 1508.65C311.287 1469.93 319.552 1428.42 319.552 1386.5C319.552 1344.58 311.287 1303.07 295.228 1264.35C279.169 1225.62 255.631 1190.43 225.958 1160.79C196.285 1131.15 161.057 1107.64 122.287 1091.59C83.5176 1075.55 41.9643 1067.3 6.79016e-05 1067.3L7.99918e-05 929Z" fill="url(#paint7_linear_770_592)"/>
<path d="M4.11761e-05 1151C30.8607 1151 61.4191 1157.09 89.9306 1168.93C118.442 1180.76 144.348 1198.11 166.17 1219.98C187.992 1241.84 205.302 1267.81 217.112 1296.38C228.922 1324.95 235 1355.57 235 1386.5C235 1417.43 228.922 1448.05 217.112 1476.62C205.302 1505.19 187.992 1531.16 166.17 1553.02C144.348 1574.89 118.442 1592.24 89.9306 1604.07C61.4191 1615.91 30.8606 1622 -4.57764e-05 1622L-3.95529e-05 1550.81C21.5318 1550.81 42.8529 1546.56 62.7457 1538.3C82.6385 1530.05 100.714 1517.94 115.939 1502.69C131.164 1487.43 143.242 1469.31 151.482 1449.38C159.721 1429.44 163.962 1408.08 163.962 1386.5C163.962 1364.92 159.721 1343.56 151.482 1323.62C143.242 1303.69 131.164 1285.57 115.939 1270.31C100.714 1255.06 82.6386 1242.95 62.7457 1234.7C42.8529 1226.44 21.5319 1222.19 3.49526e-05 1222.19L4.11761e-05 1151Z" fill="url(#paint8_linear_770_592)"/>
<path d="M1920 631C1820.98 631 1722.94 650.542 1631.46 688.509C1539.98 726.477 1456.86 782.126 1386.84 852.281C1316.83 922.436 1261.29 1005.72 1223.39 1097.38C1185.5 1189.04 1166 1287.29 1166 1386.5C1166 1485.71 1185.5 1583.96 1223.39 1675.62C1261.29 1767.28 1316.83 1850.56 1386.84 1920.72C1456.86 1990.87 1539.98 2046.52 1631.46 2084.49C1722.94 2122.46 1820.98 2142 1920 2142L1920 1913.62C1850.91 1913.62 1782.51 1899.99 1718.68 1873.5C1654.85 1847.01 1596.86 1808.18 1548.01 1759.23C1499.16 1710.28 1460.41 1652.17 1433.97 1588.22C1407.53 1524.27 1393.92 1455.72 1393.92 1386.5C1393.92 1317.28 1407.53 1248.73 1433.97 1184.78C1460.41 1120.83 1499.16 1062.72 1548.01 1013.77C1596.86 964.821 1654.85 925.993 1718.68 899.503C1782.51 873.013 1850.91 859.378 1920 859.378L1920 631Z" fill="url(#paint9_linear_770_592)"/>
<path d="M1920 929C1859.85 929 1800.3 940.834 1744.73 963.825C1689.16 986.817 1638.67 1020.52 1596.15 1063C1553.62 1105.48 1519.88 1155.92 1496.86 1211.42C1473.85 1266.93 1462 1326.42 1462 1386.5C1462 1446.58 1473.85 1506.07 1496.86 1561.58C1519.88 1617.08 1553.62 1667.52 1596.15 1710C1638.67 1752.48 1689.16 1786.18 1744.73 1809.17C1800.3 1832.17 1859.85 1844 1920 1844L1920 1705.7C1878.04 1705.7 1836.48 1697.45 1797.71 1681.41C1758.94 1665.36 1723.72 1641.85 1694.04 1612.21C1664.37 1582.57 1640.83 1547.38 1624.77 1508.65C1608.71 1469.93 1600.45 1428.42 1600.45 1386.5C1600.45 1344.58 1608.71 1303.07 1624.77 1264.35C1640.83 1225.62 1664.37 1190.43 1694.04 1160.79C1723.72 1131.15 1758.94 1107.64 1797.71 1091.59C1836.48 1075.55 1878.04 1067.3 1920 1067.3L1920 929Z" fill="url(#paint10_linear_770_592)"/>
<path d="M1920 1151C1889.14 1151 1858.58 1157.09 1830.07 1168.93C1801.56 1180.76 1775.65 1198.11 1753.83 1219.98C1732.01 1241.84 1714.7 1267.81 1702.89 1296.38C1691.08 1324.95 1685 1355.57 1685 1386.5C1685 1417.43 1691.08 1448.05 1702.89 1476.62C1714.7 1505.19 1732.01 1531.16 1753.83 1553.02C1775.65 1574.89 1801.56 1592.24 1830.07 1604.07C1858.58 1615.91 1889.14 1622 1920 1622L1920 1550.81C1898.47 1550.81 1877.15 1546.56 1857.25 1538.3C1837.36 1530.05 1819.29 1517.94 1804.06 1502.69C1788.84 1487.43 1776.76 1469.31 1768.52 1449.38C1760.28 1429.44 1756.04 1408.08 1756.04 1386.5C1756.04 1364.92 1760.28 1343.56 1768.52 1323.62C1776.76 1303.69 1788.84 1285.57 1804.06 1270.31C1819.29 1255.06 1837.36 1242.95 1857.25 1234.7C1877.15 1226.44 1898.47 1222.19 1920 1222.19L1920 1151Z" fill="url(#paint11_linear_770_592)"/>
<path d="M1920 2152C1667.86 2152 1418.19 2201.76 1185.25 2298.44C952.303 2395.12 740.644 2536.83 562.355 2715.47C384.067 2894.12 242.641 3106.2 146.152 3339.61C49.663 3573.01 0.000764248 3823.18 0.000808377 4075.82C0.000852506 4328.46 49.6631 4578.62 146.152 4812.03C242.641 5045.44 384.067 5257.52 562.356 5436.16C740.644 5614.81 952.303 5756.51 1185.25 5853.2C1418.19 5949.88 1667.86 5999.64 1920 5999.64L1920 5418.09C1744.08 5418.09 1569.88 5383.37 1407.35 5315.92C1244.83 5248.46 1097.15 5149.59 972.755 5024.95C848.361 4900.31 749.686 4752.34 682.364 4589.48C615.042 4426.63 580.392 4252.09 580.392 4075.82C580.392 3899.55 615.042 3725.01 682.364 3562.15C749.685 3399.3 848.36 3251.33 972.754 3126.69C1097.15 3002.05 1244.83 2903.18 1407.35 2835.72C1569.88 2768.26 1744.08 2733.55 1920 2733.55L1920 2152Z" fill="url(#paint12_linear_770_592)"/>
<path d="M1920 2910.83C1766.84 2910.83 1615.19 2940.97 1473.69 2999.51C1332.19 3058.06 1203.63 3143.87 1095.33 3252.05C987.032 3360.23 901.126 3488.66 842.516 3630C783.906 3771.34 753.74 3922.83 753.74 4075.82C753.74 4228.81 783.906 4380.3 842.516 4521.64C901.127 4662.98 987.033 4791.41 1095.33 4899.59C1203.63 5007.77 1332.19 5093.58 1473.69 5152.13C1615.19 5210.67 1766.84 5240.81 1920 5240.81L1920 4888.64C1813.14 4888.64 1707.33 4867.62 1608.61 4826.77C1509.88 4785.92 1420.18 4726.05 1344.62 4650.57C1269.06 4575.1 1209.12 4485.49 1168.23 4386.87C1127.33 4288.26 1106.29 4182.56 1106.29 4075.82C1106.29 3969.08 1127.33 3863.38 1168.23 3764.76C1209.12 3666.15 1269.06 3576.54 1344.62 3501.06C1420.18 3425.59 1509.88 3365.71 1608.6 3324.87C1707.33 3284.02 1813.14 3262.99 1920 3262.99L1920 2910.83Z" fill="url(#paint13_linear_770_592)"/>
<path d="M1919.99 3476.14C1841.41 3476.14 1763.6 3491.65 1690.99 3521.79C1618.39 3551.92 1552.42 3596.09 1496.86 3651.78C1441.29 3707.47 1397.21 3773.57 1367.14 3846.33C1337.06 3919.09 1321.59 3997.07 1321.59 4075.82C1321.59 4154.57 1337.06 4232.55 1367.14 4305.31C1397.21 4378.06 1441.29 4444.17 1496.86 4499.86C1552.42 4555.54 1618.39 4599.72 1690.99 4629.85C1763.6 4659.99 1841.41 4675.5 1919.99 4675.5L1919.99 4494.22C1865.17 4494.22 1810.87 4483.4 1760.22 4462.38C1709.56 4441.35 1663.54 4410.53 1624.77 4371.68C1586 4332.82 1555.24 4286.7 1534.26 4235.94C1513.28 4185.17 1502.48 4130.76 1502.48 4075.82C1502.48 4020.87 1513.28 3966.47 1534.26 3915.7C1555.24 3864.94 1585.99 3818.81 1624.77 3779.96C1663.54 3741.11 1709.56 3710.29 1760.22 3689.26C1810.87 3668.24 1865.17 3657.41 1919.99 3657.41L1919.99 3476.14Z" fill="url(#paint14_linear_770_592)"/>
<defs>
<linearGradient id="paint0_linear_770_592" x1="366" y1="417.5" x2="1886.38" y2="521.606" gradientUnits="userSpaceOnUse">
<stop stop-color="#172C3D" stop-opacity="0"/>
<stop offset="0.485" stop-color="#07192A"/>
<stop offset="1" stop-color="#1B3141"/>
</linearGradient>
<linearGradient id="paint1_linear_770_592" x1="579.704" y1="248.756" x2="1542" y2="291.456" gradientUnits="userSpaceOnUse">
<stop stop-color="#172C3D" stop-opacity="0"/>
<stop offset="1" stop-color="#0D2234"/>
</linearGradient>
<linearGradient id="paint2_linear_770_592" x1="867.389" y1="149.5" x2="1259" y2="149.5" gradientUnits="userSpaceOnUse">
<stop stop-color="#172C3D" stop-opacity="0"/>
<stop offset="1" stop-color="#20384F" stop-opacity="0.5"/>
</linearGradient>
<linearGradient id="paint3_linear_770_592" x1="1554" y1="7587.5" x2="33.6178" y2="7483.39" gradientUnits="userSpaceOnUse">
<stop stop-color="#172C3D" stop-opacity="0"/>
<stop offset="0.485" stop-color="#07192A"/>
<stop offset="1" stop-color="#1B3141"/>
</linearGradient>
<linearGradient id="paint4_linear_770_592" x1="1340.3" y1="7756.24" x2="377.998" y2="7713.54" gradientUnits="userSpaceOnUse">
<stop stop-color="#172C3D" stop-opacity="0"/>
<stop offset="1" stop-color="#0D2234"/>
</linearGradient>
<linearGradient id="paint5_linear_770_592" x1="1052.61" y1="7855.5" x2="661" y2="7855.5" gradientUnits="userSpaceOnUse">
<stop stop-color="#172C3D" stop-opacity="0"/>
<stop offset="1" stop-color="#20384F" stop-opacity="0.5"/>
</linearGradient>
<linearGradient id="paint6_linear_770_592" x1="328.253" y1="1853.97" x2="410.26" y2="657.467" gradientUnits="userSpaceOnUse">
<stop stop-color="#172C3D" stop-opacity="0"/>
<stop offset="0.485" stop-color="#07192A"/>
<stop offset="1" stop-color="#1B3141"/>
</linearGradient>
<linearGradient id="paint7_linear_770_592" x1="195.421" y1="1685.44" x2="229.007" y2="929" gradientUnits="userSpaceOnUse">
<stop stop-color="#172C3D" stop-opacity="0"/>
<stop offset="1" stop-color="#0D2234"/>
</linearGradient>
<linearGradient id="paint8_linear_770_592" x1="117.5" y1="1459.44" x2="117.5" y2="1151" gradientUnits="userSpaceOnUse">
<stop stop-color="#172C3D" stop-opacity="0"/>
<stop offset="1" stop-color="#20384F" stop-opacity="0.5"/>
</linearGradient>
<linearGradient id="paint9_linear_770_592" x1="1591.75" y1="1853.97" x2="1509.74" y2="657.467" gradientUnits="userSpaceOnUse">
<stop stop-color="#172C3D" stop-opacity="0"/>
<stop offset="0.485" stop-color="#07192A"/>
<stop offset="1" stop-color="#1B3141"/>
</linearGradient>
<linearGradient id="paint10_linear_770_592" x1="1724.58" y1="1685.44" x2="1690.99" y2="929" gradientUnits="userSpaceOnUse">
<stop stop-color="#172C3D" stop-opacity="0"/>
<stop offset="1" stop-color="#0D2234"/>
</linearGradient>
<linearGradient id="paint11_linear_770_592" x1="1802.5" y1="1459.44" x2="1802.5" y2="1151" gradientUnits="userSpaceOnUse">
<stop stop-color="#172C3D" stop-opacity="0"/>
<stop offset="1" stop-color="#20384F" stop-opacity="0.5"/>
</linearGradient>
<linearGradient id="paint12_linear_770_592" x1="1084.13" y1="5266.18" x2="875.308" y2="2219.4" gradientUnits="userSpaceOnUse">
<stop stop-color="#172C3D" stop-opacity="0"/>
<stop offset="0.485" stop-color="#07192A"/>
<stop offset="1" stop-color="#1B3141"/>
</linearGradient>
<linearGradient id="paint13_linear_770_592" x1="1422.38" y1="4837.06" x2="1336.85" y2="2910.83" gradientUnits="userSpaceOnUse">
<stop stop-color="#172C3D" stop-opacity="0"/>
<stop offset="1" stop-color="#0D2234"/>
</linearGradient>
<linearGradient id="paint14_linear_770_592" x1="1620.79" y1="4261.56" x2="1620.79" y2="3476.14" gradientUnits="userSpaceOnUse">
<stop stop-color="#172C3D" stop-opacity="0"/>
<stop offset="1" stop-color="#20384F" stop-opacity="0.5"/>
</linearGradient>
</defs>
</svg>
