<svg width="43" height="43" viewBox="0 0 43 43" fill="none" xmlns="http://www.w3.org/2000/svg">
<rect x="32" y="30" width="11" height="3" rx="1" fill="#336593"/>
<rect y="30" width="11" height="3" rx="1" fill="#336593"/>
<rect x="32" y="23" width="11" height="3" rx="1" fill="#336593"/>
<rect y="23" width="11" height="3" rx="1" fill="#336593"/>
<rect x="32" y="17" width="11" height="3" rx="1" fill="#336593"/>
<rect y="17" width="11" height="3" rx="1" fill="#336593"/>
<rect x="32" y="10" width="11" height="3" rx="1" fill="#336593"/>
<rect y="10" width="11" height="3" rx="1" fill="#336593"/>
<rect x="13" y="32" width="11" height="3" rx="1" transform="rotate(90 13 32)" fill="#336593"/>
<rect x="13" width="11" height="3" rx="1" transform="rotate(90 13 0)" fill="#336593"/>
<rect x="20" y="32" width="11" height="3" rx="1" transform="rotate(90 20 32)" fill="#336593"/>
<rect x="20" width="11" height="3" rx="1" transform="rotate(90 20 0)" fill="#336593"/>
<rect x="27" y="32" width="11" height="3" rx="1" transform="rotate(90 27 32)" fill="#336593"/>
<rect x="27" width="11" height="3" rx="1" transform="rotate(90 27 0)" fill="#336593"/>
<rect x="34" y="32" width="11" height="3" rx="1" transform="rotate(90 34 32)" fill="#336593"/>
<rect x="34" width="11" height="3" rx="1" transform="rotate(90 34 0)" fill="#336593"/>
<rect x="5" y="5" width="33" height="33" rx="3" fill="#336593"/>
<rect x="12" y="12" width="19" height="19" rx="2" fill="#00E0FF"/>
</svg>
