<svg width="78" height="83" viewBox="0 0 78 83" fill="none" xmlns="http://www.w3.org/2000/svg">
<path d="M18.9191 52.601V30.399C18.9191 27.3848 17.739 24.5177 15.6 22.3857L8.92482 15.7325C5.60567 12.461 0 14.7768 0 19.4083V63.5917C0 68.2232 5.60567 70.539 8.92482 67.2675L15.6 60.6143C17.739 58.4823 18.9191 55.6151 18.9191 52.601Z" fill="white"/>
<path d="M65.7928 12.167C61.9574 8.34411 57.5318 5.3667 52.5531 3.27148C47.4269 1.10275 41.9687 0 36.3631 0H19.1035C14.4567 0 12.1333 5.58724 15.4155 8.89548L22.0907 15.5487C24.2297 17.6807 27.1063 18.857 30.1304 18.857H35.9943C48.4595 18.857 58.8595 28.7081 59.0439 41.1324C59.2283 53.7772 48.9758 64.1063 36.3262 64.1063H30.1304C27.1063 64.1063 24.2297 65.2825 22.0907 67.4145L15.4155 74.0678C12.1333 77.3392 14.4567 82.9632 19.1035 82.9632H36.3262C41.9318 82.9632 47.39 81.8605 52.5531 79.6918C57.5318 77.5965 61.9574 74.6191 65.7928 70.7963C69.6283 66.9734 72.6155 62.5624 74.7177 57.6001C76.8936 52.4907 77.9999 47.0505 77.9999 41.4265C77.9999 35.8025 76.8936 30.399 74.7177 25.2529C72.6155 20.4008 69.6283 15.9531 65.7928 12.167Z" fill="white"/>
</svg>
