<svg width="59" height="42" viewBox="0 0 59 42" fill="none" xmlns="http://www.w3.org/2000/svg">
<path fill-rule="evenodd" clip-rule="evenodd" d="M8.97826 0H2C0.895431 0 0 0.895431 0 2V39.0435C0 40.148 0.89543 41.0435 2 41.0435H57C58.1046 41.0435 59 40.148 59 39.0435V35.913H55.1522V29.5H59V26.9348H55.1522V20.5217H59V2C59 0.895431 58.1046 0 57 0H30.7826V3.8478H8.97826V0Z" fill="#3981C4"/>
<rect x="7.69531" y="7.69556" width="16.6739" height="16.6739" fill="#76B6F1"/>
<rect x="11.5439" y="11.5435" width="8.97826" height="8.97826" fill="#6DF5DD"/>
<rect x="8.19531" y="8.19556" width="15.6739" height="15.6739" stroke="#00E0FF"/>
<rect x="32.0654" y="12.8262" width="19.2391" height="7.69565" fill="#6DF5DD"/>
<rect x="2.56543" y="2.56519" width="3.84783" height="3.84783" fill="#336593"/>
<rect x="14.1084" y="33.3479" width="5.13043" height="3.84783" fill="#336593"/>
<rect x="2.56543" y="7.69556" width="3.84783" height="2.56522" fill="#336593"/>
<rect x="2.56543" y="12.8262" width="3.84783" height="2.56522" fill="#336593"/>
<rect x="2.56543" y="16.6738" width="3.84783" height="2.56522" fill="#336593"/>
<rect x="7.69531" y="26.9348" width="3.84783" height="3.84783" fill="#336593"/>
<rect x="12.8262" y="26.9348" width="3.84783" height="3.84783" fill="#336593"/>
<rect x="17.9561" y="26.9348" width="3.84783" height="3.84783" fill="#336593"/>
<rect x="2.56543" y="21.8044" width="3.84783" height="2.56522" fill="#336593"/>
<rect x="21.8047" y="33.3479" width="3.84783" height="3.84783" fill="#336593"/>
<rect x="32.0654" y="5.13037" width="2.56522" height="2.56522" fill="#336593"/>
<rect x="32.0654" y="10.261" width="1.28261" height="1.28261" fill="#336593"/>
<rect x="32.0654" y="21.8044" width="1.28261" height="1.28261" fill="#336593"/>
<rect x="34.6309" y="10.261" width="1.28261" height="1.28261" fill="#336593"/>
<rect x="34.6309" y="21.8044" width="1.28261" height="1.28261" fill="#336593"/>
<rect x="44.8916" y="10.261" width="1.28261" height="1.28261" fill="#336593"/>
<rect x="44.8916" y="21.8044" width="1.28261" height="1.28261" fill="#336593"/>
<rect x="37.1953" y="10.261" width="1.28261" height="1.28261" fill="#336593"/>
<rect x="37.1953" y="21.8044" width="1.28261" height="1.28261" fill="#336593"/>
<rect x="47.4561" y="10.261" width="1.28261" height="1.28261" fill="#336593"/>
<rect x="47.4561" y="21.8044" width="1.28261" height="1.28261" fill="#336593"/>
<rect x="39.7607" y="10.261" width="1.28261" height="1.28261" fill="#336593"/>
<rect x="39.7607" y="21.8044" width="1.28261" height="1.28261" fill="#336593"/>
<rect x="50.0215" y="10.261" width="1.28261" height="1.28261" fill="#336593"/>
<rect x="50.0215" y="21.8044" width="1.28261" height="1.28261" fill="#336593"/>
<rect x="42.3262" y="10.261" width="1.28261" height="1.28261" fill="#336593"/>
<rect x="42.3262" y="21.8044" width="1.28261" height="1.28261" fill="#336593"/>
<rect x="34.6309" y="26.9348" width="2.56522" height="2.56522" fill="#336593"/>
<rect x="34.6309" y="30.7827" width="2.56522" height="2.56522" fill="#336593"/>
<rect x="37.1953" y="5.13037" width="2.56522" height="2.56522" fill="#336593"/>
<rect x="39.7607" y="26.9348" width="2.56522" height="2.56522" fill="#336593"/>
<rect x="39.7607" y="30.7827" width="2.56522" height="2.56522" fill="#336593"/>
<rect x="42.3262" y="5.13037" width="2.56522" height="2.56522" fill="#336593"/>
<rect x="47.4561" y="5.13037" width="2.56522" height="2.56522" fill="#336593"/>
<rect x="44.8916" y="26.9348" width="2.56522" height="2.56522" fill="#336593"/>
<rect x="44.8916" y="30.7827" width="2.56522" height="2.56522" fill="#336593"/>
<circle cx="55.1517" cy="8.97817" r="1.28261" fill="#336593"/>
<circle cx="55.1517" cy="12.8261" r="1.28261" fill="#336593"/>
<circle cx="55.1517" cy="16.674" r="1.28261" fill="#336593"/>
</svg>
