<svg width="65" height="32" viewBox="0 0 65 32" fill="none" xmlns="http://www.w3.org/2000/svg">
<path d="M0 5H62V31H2C0.895432 31 0 30.1046 0 29V5Z" fill="#4187C8"/>
<path d="M18 1C18 0.447715 18.4477 0 19 0H47C47.5523 0 48 0.447715 48 1V5H18V1Z" fill="#336593"/>
<rect y="5" width="62" height="1" fill="#336593"/>
<path d="M3 1C3 0.447715 3.44772 0 4 0H13C13.5523 0 14 0.447715 14 1V5H3V1Z" fill="#336593"/>
<rect x="56" width="6" height="5" fill="#336593"/>
<rect x="36.999" y="16.2351" width="1.17647" height="2.35294" transform="rotate(90 36.999 16.2351)" fill="#336593"/>
<rect x="36.999" y="13.8823" width="1.17647" height="2.35294" transform="rotate(90 36.999 13.8823)" fill="#336593"/>
<rect x="36.999" y="11.5293" width="1.17647" height="2.35294" transform="rotate(90 36.999 11.5293)" fill="#336593"/>
<rect x="36.999" y="18.5881" width="1.17647" height="2.35294" transform="rotate(90 36.999 18.5881)" fill="#336593"/>
<rect x="36.999" y="20.9412" width="1.17647" height="2.35294" transform="rotate(90 36.999 20.9412)" fill="#336593"/>
<rect x="36.999" y="23.2939" width="1.17647" height="2.35294" transform="rotate(90 36.999 23.2939)" fill="#336593"/>
<rect x="19.3525" y="16.2351" width="1.17647" height="2.35294" transform="rotate(90 19.3525 16.2351)" fill="#336593"/>
<rect x="19.3525" y="13.8823" width="1.17647" height="2.35294" transform="rotate(90 19.3525 13.8823)" fill="#336593"/>
<rect x="19.3525" y="11.5293" width="1.17647" height="2.35294" transform="rotate(90 19.3525 11.5293)" fill="#336593"/>
<rect x="19.3525" y="18.5881" width="1.17647" height="2.35294" transform="rotate(90 19.3525 18.5881)" fill="#336593"/>
<rect x="19.3525" y="20.9412" width="1.17647" height="2.35294" transform="rotate(90 19.3525 20.9412)" fill="#336593"/>
<rect x="19.3525" y="23.2939" width="1.17647" height="2.35294" transform="rotate(90 19.3525 23.2939)" fill="#336593"/>
<rect x="28.7646" y="10.353" width="1.17647" height="2.35294" transform="rotate(-180 28.7646 10.353)" fill="#336593"/>
<rect x="31.1182" y="10.353" width="1.17647" height="2.35294" transform="rotate(-180 31.1182 10.353)" fill="#336593"/>
<rect x="33.4707" y="10.353" width="1.17647" height="2.35294" transform="rotate(-180 33.4707 10.353)" fill="#336593"/>
<rect x="26.4121" y="10.353" width="1.17647" height="2.35294" transform="rotate(-180 26.4121 10.353)" fill="#336593"/>
<rect x="24.0586" y="10.353" width="1.17647" height="2.35294" transform="rotate(-180 24.0586 10.353)" fill="#336593"/>
<rect x="21.7061" y="10.353" width="1.17647" height="2.35294" transform="rotate(-180 21.7061 10.353)" fill="#336593"/>
<rect x="28.7646" y="28" width="1.17647" height="2.35294" transform="rotate(-180 28.7646 28)" fill="#336593"/>
<rect x="31.1182" y="28" width="1.17647" height="2.35294" transform="rotate(-180 31.1182 28)" fill="#336593"/>
<rect x="33.4707" y="28" width="1.17647" height="2.35294" transform="rotate(-180 33.4707 28)" fill="#336593"/>
<rect x="26.4121" y="28" width="1.17647" height="2.35294" transform="rotate(-180 26.4121 28)" fill="#336593"/>
<rect x="24.0586" y="28" width="1.17647" height="2.35294" transform="rotate(-180 24.0586 28)" fill="#336593"/>
<rect x="21.7061" y="28" width="1.17647" height="2.35294" transform="rotate(-180 21.7061 28)" fill="#336593"/>
<rect x="62" width="3" height="32" fill="#73B0E9"/>
<rect x="19" y="10" width="16" height="16" rx="1" fill="#00E0FF"/>
<rect x="22" y="13" width="10" height="10" rx="1" fill="#93FFEB"/>
<rect x="2" y="9" width="3" height="3" fill="#336593"/>
<rect x="2" y="15" width="3" height="3" fill="#336593"/>
<rect x="2" y="21" width="3" height="3" fill="#336593"/>
<rect x="6" y="9" width="3" height="3" fill="#336593"/>
<rect x="6" y="15" width="3" height="3" fill="#336593"/>
<rect x="6" y="21" width="3" height="3" fill="#336593"/>
<rect x="12" y="12" width="2" height="2" fill="#336593"/>
<rect x="12" y="16" width="2" height="3" fill="#336593"/>
<rect x="12" y="21" width="2" height="2" fill="#336593"/>
<rect x="42" y="12" width="2" height="2" fill="#336593"/>
<rect x="42" y="16" width="2" height="3" fill="#336593"/>
<rect x="42" y="21" width="2" height="2" fill="#336593"/>
<rect x="49" y="8" width="2" height="2" fill="#336593"/>
<rect x="49" y="20" width="2" height="2" fill="#336593"/>
<rect x="49" y="12" width="2" height="2" fill="#336593"/>
<rect x="49" y="24" width="2" height="2" fill="#336593"/>
<rect x="49" y="16" width="2" height="2" fill="#336593"/>
<rect x="53" y="8" width="2" height="2" fill="#336593"/>
<rect x="53" y="20" width="2" height="2" fill="#336593"/>
<rect x="53" y="12" width="2" height="2" fill="#336593"/>
<rect x="53" y="24" width="2" height="2" fill="#336593"/>
<rect x="53" y="16" width="2" height="2" fill="#336593"/>
<rect x="57" y="8" width="2" height="2" fill="#336593"/>
<rect x="57" y="20" width="2" height="2" fill="#336593"/>
<rect x="57" y="12" width="2" height="2" fill="#336593"/>
<rect x="57" y="24" width="2" height="2" fill="#336593"/>
<rect x="57" y="16" width="2" height="2" fill="#336593"/>
<rect x="45" y="12" width="1" height="1" fill="#336593"/>
<rect x="45" y="18" width="1" height="1" fill="#336593"/>
<rect x="45" y="14" width="1" height="1" fill="#336593"/>
<rect x="45" y="20" width="1" height="1" fill="#336593"/>
<rect x="45" y="22" width="1" height="1" fill="#336593"/>
<rect x="45" y="16" width="1" height="1" fill="#336593"/>
<rect x="47" y="12" width="1" height="1" fill="#336593"/>
<rect x="47" y="18" width="1" height="1" fill="#336593"/>
<rect x="47" y="14" width="1" height="1" fill="#336593"/>
<rect x="47" y="20" width="1" height="1" fill="#336593"/>
<rect x="47" y="22" width="1" height="1" fill="#336593"/>
<rect x="47" y="16" width="1" height="1" fill="#336593"/>
</svg>
