<svg width="535" height="471" viewBox="0 0 535 471" fill="none" xmlns="http://www.w3.org/2000/svg">
<mask id="path-1-inside-1_889_1205" fill="white">
<path d="M515.125 245.062C515.125 282.972 505.549 320.267 487.286 353.487L290.062 245.062H515.125Z"/>
</mask>
<path d="M515.125 245.062C515.125 282.972 505.549 320.267 487.286 353.487L290.062 245.062H515.125Z" fill="url(#paint0_linear_889_1205)" fill-opacity="0.2" stroke="url(#paint1_linear_889_1205)" stroke-width="4" mask="url(#path-1-inside-1_889_1205)"/>
<path d="M450.946 300.774C449.676 300.774 448.521 300.484 447.481 299.904C446.441 299.324 445.611 298.549 444.991 297.579C444.381 296.599 444.076 295.509 444.076 294.309C444.076 293.299 444.326 292.359 444.826 291.489C445.326 290.619 445.991 289.899 446.821 289.329C446.151 288.829 445.606 288.199 445.186 287.439C444.766 286.679 444.556 285.859 444.556 284.979C444.556 283.879 444.841 282.879 445.411 281.979C445.991 281.069 446.766 280.344 447.736 279.804C448.706 279.264 449.776 278.994 450.946 278.994C452.116 278.994 453.186 279.264 454.156 279.804C455.126 280.344 455.896 281.069 456.466 281.979C457.046 282.879 457.336 283.879 457.336 284.979C457.336 285.859 457.126 286.679 456.706 287.439C456.296 288.199 455.751 288.829 455.071 289.329C455.921 289.899 456.591 290.619 457.081 291.489C457.581 292.359 457.831 293.299 457.831 294.309C457.831 295.499 457.521 296.584 456.901 297.564C456.281 298.544 455.451 299.324 454.411 299.904C453.371 300.484 452.216 300.774 450.946 300.774ZM450.946 297.654C451.606 297.654 452.206 297.504 452.746 297.204C453.286 296.904 453.716 296.504 454.036 296.004C454.366 295.494 454.531 294.929 454.531 294.309C454.531 293.699 454.366 293.144 454.036 292.644C453.716 292.134 453.286 291.729 452.746 291.429C452.206 291.129 451.606 290.979 450.946 290.979C450.296 290.979 449.696 291.129 449.146 291.429C448.606 291.729 448.171 292.134 447.841 292.644C447.521 293.144 447.361 293.699 447.361 294.309C447.361 294.929 447.521 295.494 447.841 296.004C448.171 296.504 448.606 296.904 449.146 297.204C449.696 297.504 450.296 297.654 450.946 297.654ZM450.946 287.859C451.516 287.859 452.031 287.729 452.491 287.469C452.961 287.209 453.336 286.864 453.616 286.434C453.896 285.994 454.036 285.509 454.036 284.979C454.036 284.449 453.896 283.969 453.616 283.539C453.336 283.109 452.961 282.764 452.491 282.504C452.031 282.244 451.516 282.114 450.946 282.114C450.376 282.114 449.856 282.244 449.386 282.504C448.926 282.764 448.556 283.109 448.276 283.539C447.996 283.969 447.856 284.449 447.856 284.979C447.856 285.509 447.996 285.994 448.276 286.434C448.556 286.864 448.926 287.209 449.386 287.469C449.856 287.729 450.376 287.859 450.946 287.859ZM462.169 300.384L474.289 279.384H477.889L465.769 300.384H462.169ZM464.704 288.189C463.944 288.189 463.244 288.004 462.604 287.634C461.974 287.254 461.469 286.749 461.089 286.119C460.709 285.479 460.519 284.774 460.519 284.004C460.519 283.204 460.709 282.489 461.089 281.859C461.479 281.229 461.989 280.734 462.619 280.374C463.259 280.004 463.954 279.819 464.704 279.819C465.474 279.819 466.174 280.009 466.804 280.389C467.434 280.759 467.939 281.259 468.319 281.889C468.699 282.519 468.889 283.224 468.889 284.004C468.889 284.794 468.694 285.504 468.304 286.134C467.924 286.764 467.414 287.264 466.774 287.634C466.144 288.004 465.454 288.189 464.704 288.189ZM464.704 285.984C465.264 285.984 465.734 285.794 466.114 285.414C466.494 285.024 466.684 284.554 466.684 284.004C466.684 283.444 466.494 282.974 466.114 282.594C465.734 282.204 465.264 282.009 464.704 282.009C464.154 282.009 463.684 282.204 463.294 282.594C462.914 282.974 462.724 283.444 462.724 284.004C462.724 284.554 462.914 285.024 463.294 285.414C463.684 285.794 464.154 285.984 464.704 285.984ZM475.384 299.979C474.604 299.979 473.894 299.784 473.254 299.394C472.624 298.994 472.119 298.479 471.739 297.849C471.369 297.209 471.184 296.519 471.184 295.779C471.184 294.999 471.379 294.294 471.769 293.664C472.159 293.024 472.669 292.519 473.299 292.149C473.939 291.769 474.634 291.579 475.384 291.579C476.174 291.579 476.884 291.774 477.514 292.164C478.144 292.554 478.644 293.069 479.014 293.709C479.384 294.349 479.569 295.039 479.569 295.779C479.569 296.549 479.379 297.254 478.999 297.894C478.629 298.524 478.124 299.029 477.484 299.409C476.854 299.789 476.154 299.979 475.384 299.979ZM475.384 297.774C475.924 297.774 476.389 297.579 476.779 297.189C477.169 296.799 477.364 296.329 477.364 295.779C477.364 295.229 477.169 294.759 476.779 294.369C476.389 293.979 475.924 293.784 475.384 293.784C474.834 293.784 474.359 293.979 473.959 294.369C473.569 294.759 473.374 295.229 473.374 295.779C473.374 296.329 473.569 296.799 473.959 297.189C474.359 297.579 474.834 297.774 475.384 297.774Z" fill="#17FFD5"/>
<path d="M282.935 267.749L476.013 373.549C458.057 405.973 432.338 433.436 401.161 453.478L282.935 267.749Z" fill="url(#paint2_linear_889_1205)" fill-opacity="0.2" stroke="url(#paint3_linear_889_1205)" stroke-width="2"/>
<path d="M398.24 397.707C396.97 397.707 395.815 397.417 394.775 396.837C393.735 396.257 392.905 395.482 392.285 394.512C391.675 393.532 391.37 392.442 391.37 391.242C391.37 390.232 391.62 389.292 392.12 388.422C392.62 387.552 393.285 386.832 394.115 386.262C393.445 385.762 392.9 385.132 392.48 384.372C392.06 383.612 391.85 382.792 391.85 381.912C391.85 380.812 392.135 379.812 392.705 378.912C393.285 378.002 394.06 377.277 395.03 376.737C396 376.197 397.07 375.927 398.24 375.927C399.41 375.927 400.48 376.197 401.45 376.737C402.42 377.277 403.19 378.002 403.76 378.912C404.34 379.812 404.63 380.812 404.63 381.912C404.63 382.792 404.42 383.612 404 384.372C403.59 385.132 403.045 385.762 402.365 386.262C403.215 386.832 403.885 387.552 404.375 388.422C404.875 389.292 405.125 390.232 405.125 391.242C405.125 392.432 404.815 393.517 404.195 394.497C403.575 395.477 402.745 396.257 401.705 396.837C400.665 397.417 399.51 397.707 398.24 397.707ZM398.24 394.587C398.9 394.587 399.5 394.437 400.04 394.137C400.58 393.837 401.01 393.437 401.33 392.937C401.66 392.427 401.825 391.862 401.825 391.242C401.825 390.632 401.66 390.077 401.33 389.577C401.01 389.067 400.58 388.662 400.04 388.362C399.5 388.062 398.9 387.912 398.24 387.912C397.59 387.912 396.99 388.062 396.44 388.362C395.9 388.662 395.465 389.067 395.135 389.577C394.815 390.077 394.655 390.632 394.655 391.242C394.655 391.862 394.815 392.427 395.135 392.937C395.465 393.437 395.9 393.837 396.44 394.137C396.99 394.437 397.59 394.587 398.24 394.587ZM398.24 384.792C398.81 384.792 399.325 384.662 399.785 384.402C400.255 384.142 400.63 383.797 400.91 383.367C401.19 382.927 401.33 382.442 401.33 381.912C401.33 381.382 401.19 380.902 400.91 380.472C400.63 380.042 400.255 379.697 399.785 379.437C399.325 379.177 398.81 379.047 398.24 379.047C397.67 379.047 397.15 379.177 396.68 379.437C396.22 379.697 395.85 380.042 395.57 380.472C395.29 380.902 395.15 381.382 395.15 381.912C395.15 382.442 395.29 382.927 395.57 383.367C395.85 383.797 396.22 384.142 396.68 384.402C397.15 384.662 397.67 384.792 398.24 384.792ZM409.463 397.317L421.583 376.317H425.183L413.063 397.317H409.463ZM411.998 385.122C411.238 385.122 410.538 384.937 409.898 384.567C409.268 384.187 408.763 383.682 408.383 383.052C408.003 382.412 407.813 381.707 407.813 380.937C407.813 380.137 408.003 379.422 408.383 378.792C408.773 378.162 409.283 377.667 409.913 377.307C410.553 376.937 411.248 376.752 411.998 376.752C412.768 376.752 413.468 376.942 414.098 377.322C414.728 377.692 415.233 378.192 415.613 378.822C415.993 379.452 416.183 380.157 416.183 380.937C416.183 381.727 415.988 382.437 415.598 383.067C415.218 383.697 414.708 384.197 414.068 384.567C413.438 384.937 412.748 385.122 411.998 385.122ZM411.998 382.917C412.558 382.917 413.028 382.727 413.408 382.347C413.788 381.957 413.978 381.487 413.978 380.937C413.978 380.377 413.788 379.907 413.408 379.527C413.028 379.137 412.558 378.942 411.998 378.942C411.448 378.942 410.978 379.137 410.588 379.527C410.208 379.907 410.018 380.377 410.018 380.937C410.018 381.487 410.208 381.957 410.588 382.347C410.978 382.727 411.448 382.917 411.998 382.917ZM422.678 396.912C421.898 396.912 421.188 396.717 420.548 396.327C419.918 395.927 419.413 395.412 419.033 394.782C418.663 394.142 418.478 393.452 418.478 392.712C418.478 391.932 418.673 391.227 419.063 390.597C419.453 389.957 419.963 389.452 420.593 389.082C421.233 388.702 421.928 388.512 422.678 388.512C423.468 388.512 424.178 388.707 424.808 389.097C425.438 389.487 425.938 390.002 426.308 390.642C426.678 391.282 426.863 391.972 426.863 392.712C426.863 393.482 426.673 394.187 426.293 394.827C425.923 395.457 425.418 395.962 424.778 396.342C424.148 396.722 423.448 396.912 422.678 396.912ZM422.678 394.707C423.218 394.707 423.683 394.512 424.073 394.122C424.463 393.732 424.658 393.262 424.658 392.712C424.658 392.162 424.463 391.692 424.073 391.302C423.683 390.912 423.218 390.717 422.678 390.717C422.128 390.717 421.653 390.912 421.253 391.302C420.863 391.692 420.668 392.162 420.668 392.712C420.668 393.262 420.863 393.732 421.253 394.122C421.653 394.512 422.128 394.707 422.678 394.707Z" fill="#17FFD5"/>
<mask id="path-5-inside-2_889_1205" fill="white">
<path d="M450.125 225.062C450.125 175.115 433.51 126.586 402.896 87.1201C372.283 47.6538 329.411 19.4922 281.033 7.07075C232.655 -5.3507 181.519 -1.32622 135.679 18.5103C89.8398 38.3469 51.9011 72.8684 27.8387 116.638C3.77631 160.407 -5.04262 210.937 2.77089 260.27C10.5844 309.602 34.5864 354.934 70.9965 389.126C107.407 423.317 154.156 444.425 203.882 449.126C253.608 453.826 303.485 441.852 345.657 415.089L225.062 225.062H450.125Z"/>
</mask>
<path d="M450.125 225.062C450.125 175.115 433.51 126.586 402.896 87.1201C372.283 47.6538 329.411 19.4922 281.033 7.07075C232.655 -5.3507 181.519 -1.32622 135.679 18.5103C89.8398 38.3469 51.9011 72.8684 27.8387 116.638C3.77631 160.407 -5.04262 210.937 2.77089 260.27C10.5844 309.602 34.5864 354.934 70.9965 389.126C107.407 423.317 154.156 444.425 203.882 449.126C253.608 453.826 303.485 441.852 345.657 415.089L225.062 225.062H450.125Z" fill="url(#paint4_linear_889_1205)" stroke="url(#paint5_linear_889_1205)" stroke-width="4" mask="url(#path-5-inside-2_889_1205)"/>
<path d="M352.411 190.749C351.141 190.749 349.986 190.459 348.946 189.879C347.906 189.299 347.076 188.524 346.456 187.554C345.846 186.574 345.541 185.484 345.541 184.284C345.541 183.274 345.791 182.334 346.291 181.464C346.791 180.594 347.456 179.874 348.286 179.304C347.616 178.804 347.071 178.174 346.651 177.414C346.231 176.654 346.021 175.834 346.021 174.954C346.021 173.854 346.306 172.854 346.876 171.954C347.456 171.044 348.231 170.319 349.201 169.779C350.171 169.239 351.241 168.969 352.411 168.969C353.581 168.969 354.651 169.239 355.621 169.779C356.591 170.319 357.361 171.044 357.931 171.954C358.511 172.854 358.801 173.854 358.801 174.954C358.801 175.834 358.591 176.654 358.171 177.414C357.761 178.174 357.216 178.804 356.536 179.304C357.386 179.874 358.056 180.594 358.546 181.464C359.046 182.334 359.296 183.274 359.296 184.284C359.296 185.474 358.986 186.559 358.366 187.539C357.746 188.519 356.916 189.299 355.876 189.879C354.836 190.459 353.681 190.749 352.411 190.749ZM352.411 187.629C353.071 187.629 353.671 187.479 354.211 187.179C354.751 186.879 355.181 186.479 355.501 185.979C355.831 185.469 355.996 184.904 355.996 184.284C355.996 183.674 355.831 183.119 355.501 182.619C355.181 182.109 354.751 181.704 354.211 181.404C353.671 181.104 353.071 180.954 352.411 180.954C351.761 180.954 351.161 181.104 350.611 181.404C350.071 181.704 349.636 182.109 349.306 182.619C348.986 183.119 348.826 183.674 348.826 184.284C348.826 184.904 348.986 185.469 349.306 185.979C349.636 186.479 350.071 186.879 350.611 187.179C351.161 187.479 351.761 187.629 352.411 187.629ZM352.411 177.834C352.981 177.834 353.496 177.704 353.956 177.444C354.426 177.184 354.801 176.839 355.081 176.409C355.361 175.969 355.501 175.484 355.501 174.954C355.501 174.424 355.361 173.944 355.081 173.514C354.801 173.084 354.426 172.739 353.956 172.479C353.496 172.219 352.981 172.089 352.411 172.089C351.841 172.089 351.321 172.219 350.851 172.479C350.391 172.739 350.021 173.084 349.741 173.514C349.461 173.944 349.321 174.424 349.321 174.954C349.321 175.484 349.461 175.969 349.741 176.409C350.021 176.839 350.391 177.184 350.851 177.444C351.321 177.704 351.841 177.834 352.411 177.834ZM370.968 190.359V184.989H361.983V181.854L370.218 169.359H374.088V181.869H376.008V184.989H374.088V190.359H370.968ZM365.613 181.854L370.968 181.869L370.938 173.664L365.613 181.854ZM380.955 190.359L393.075 169.359H396.675L384.555 190.359H380.955ZM383.49 178.164C382.73 178.164 382.03 177.979 381.39 177.609C380.76 177.229 380.255 176.724 379.875 176.094C379.495 175.454 379.305 174.749 379.305 173.979C379.305 173.179 379.495 172.464 379.875 171.834C380.265 171.204 380.775 170.709 381.405 170.349C382.045 169.979 382.74 169.794 383.49 169.794C384.26 169.794 384.96 169.984 385.59 170.364C386.22 170.734 386.725 171.234 387.105 171.864C387.485 172.494 387.675 173.199 387.675 173.979C387.675 174.769 387.48 175.479 387.09 176.109C386.71 176.739 386.2 177.239 385.56 177.609C384.93 177.979 384.24 178.164 383.49 178.164ZM383.49 175.959C384.05 175.959 384.52 175.769 384.9 175.389C385.28 174.999 385.47 174.529 385.47 173.979C385.47 173.419 385.28 172.949 384.9 172.569C384.52 172.179 384.05 171.984 383.49 171.984C382.94 171.984 382.47 172.179 382.08 172.569C381.7 172.949 381.51 173.419 381.51 173.979C381.51 174.529 381.7 174.999 382.08 175.389C382.47 175.769 382.94 175.959 383.49 175.959ZM394.17 189.954C393.39 189.954 392.68 189.759 392.04 189.369C391.41 188.969 390.905 188.454 390.525 187.824C390.155 187.184 389.97 186.494 389.97 185.754C389.97 184.974 390.165 184.269 390.555 183.639C390.945 182.999 391.455 182.494 392.085 182.124C392.725 181.744 393.42 181.554 394.17 181.554C394.96 181.554 395.67 181.749 396.3 182.139C396.93 182.529 397.43 183.044 397.8 183.684C398.17 184.324 398.355 185.014 398.355 185.754C398.355 186.524 398.165 187.229 397.785 187.869C397.415 188.499 396.91 189.004 396.27 189.384C395.64 189.764 394.94 189.954 394.17 189.954ZM394.17 187.749C394.71 187.749 395.175 187.554 395.565 187.164C395.955 186.774 396.15 186.304 396.15 185.754C396.15 185.204 395.955 184.734 395.565 184.344C395.175 183.954 394.71 183.759 394.17 183.759C393.62 183.759 393.145 183.954 392.745 184.344C392.355 184.734 392.16 185.204 392.16 185.754C392.16 186.304 392.355 186.774 392.745 187.164C393.145 187.554 393.62 187.749 394.17 187.749Z" fill="white"/>
<defs>
<linearGradient id="paint0_linear_889_1205" x1="297.212" y1="20" x2="297.212" y2="675.132" gradientUnits="userSpaceOnUse">
<stop stop-color="white" stop-opacity="0.6"/>
<stop offset="1" stop-color="#737373" stop-opacity="0.05"/>
</linearGradient>
<linearGradient id="paint1_linear_889_1205" x1="290.062" y1="470.125" x2="290.062" y2="20" gradientUnits="userSpaceOnUse">
<stop stop-color="#E7E7E7" stop-opacity="0.2"/>
<stop offset="0.545" stop-color="#E7E7E7" stop-opacity="0.7"/>
<stop offset="1" stop-color="#666666" stop-opacity="0.2"/>
</linearGradient>
<linearGradient id="paint2_linear_889_1205" x1="381.821" y1="265" x2="381.821" y2="541.332" gradientUnits="userSpaceOnUse">
<stop stop-color="white" stop-opacity="0.6"/>
<stop offset="1" stop-color="#737373" stop-opacity="0.05"/>
</linearGradient>
<linearGradient id="paint3_linear_889_1205" x1="378.686" y1="454.861" x2="378.686" y2="265" gradientUnits="userSpaceOnUse">
<stop stop-color="#E7E7E7" stop-opacity="0.2"/>
<stop offset="0.545" stop-color="#E7E7E7" stop-opacity="0.7"/>
<stop offset="1" stop-color="#666666" stop-opacity="0.2"/>
</linearGradient>
<linearGradient id="paint4_linear_889_1205" x1="225.062" y1="0" x2="225.062" y2="450.125" gradientUnits="userSpaceOnUse">
<stop stop-color="#17FFD5"/>
<stop offset="0.52" stop-color="#05C09E"/>
<stop offset="1" stop-color="#09B092"/>
</linearGradient>
<linearGradient id="paint5_linear_889_1205" x1="225.062" y1="450.125" x2="225.062" y2="0" gradientUnits="userSpaceOnUse">
<stop stop-color="#E7E7E7" stop-opacity="0.2"/>
<stop offset="0.545" stop-color="#E7E7E7" stop-opacity="0.7"/>
<stop offset="1" stop-color="#666666" stop-opacity="0.2"/>
</linearGradient>
</defs>
</svg>
